<svg width="363" height="214" viewBox="0 0 363 214" fill="none" xmlns="http://www.w3.org/2000/svg">
<path d="M277 201C277 149.085 234.019 107 181 107C127.981 107 85 149.085 85 201" stroke="#F2F2F2" stroke-opacity="0.12" stroke-width="2"/>
<path d="M318 189C318 115.546 256.663 56 181 56C105.337 56 44 115.546 44 189" stroke="#F2F2F2" stroke-opacity="0.12" stroke-width="2"/>
<path d="M362 178C362 80.2456 281.187 1 181.5 1C81.8126 1 1 80.2456 1 178" stroke="#F2F2F2" stroke-opacity="0.12" stroke-width="2"/>
<path d="M52.252 112.877H45.7305V108.764H52.252C53.2598 108.764 54.0801 108.6 54.7129 108.271C55.3457 107.932 55.8086 107.463 56.1016 106.865C56.3945 106.268 56.541 105.594 56.541 104.844C56.541 104.082 56.3945 103.373 56.1016 102.717C55.8086 102.061 55.3457 101.533 54.7129 101.135C54.0801 100.736 53.2598 100.537 52.252 100.537H47.5586V122H42.2852V96.4062H52.252C54.2559 96.4062 55.9727 96.7695 57.4023 97.4961C58.8438 98.2109 59.9453 99.2012 60.707 100.467C61.4688 101.732 61.8496 103.18 61.8496 104.809C61.8496 106.461 61.4688 107.891 60.707 109.098C59.9453 110.305 58.8438 111.236 57.4023 111.893C55.9727 112.549 54.2559 112.877 52.252 112.877ZM70.5156 95V122H65.4355V95H70.5156ZM84.9648 117.711V109.238C84.9648 108.629 84.8652 108.107 84.666 107.674C84.4668 107.229 84.1562 106.883 83.7344 106.637C83.3242 106.391 82.791 106.268 82.1348 106.268C81.5723 106.268 81.0859 106.367 80.6758 106.566C80.2656 106.754 79.9492 107.029 79.7266 107.393C79.5039 107.744 79.3926 108.16 79.3926 108.641H74.3301C74.3301 107.832 74.5176 107.064 74.8926 106.338C75.2676 105.611 75.8125 104.973 76.5273 104.422C77.2422 103.859 78.0918 103.42 79.0762 103.104C80.0723 102.787 81.1855 102.629 82.416 102.629C83.8926 102.629 85.2051 102.875 86.3535 103.367C87.502 103.859 88.4043 104.598 89.0605 105.582C89.7285 106.566 90.0625 107.797 90.0625 109.273V117.412C90.0625 118.455 90.127 119.311 90.2559 119.979C90.3848 120.635 90.5723 121.209 90.8184 121.701V122H85.7031C85.457 121.484 85.2695 120.84 85.1406 120.066C85.0234 119.281 84.9648 118.496 84.9648 117.711ZM85.6328 110.416L85.668 113.281H82.8379C82.1699 113.281 81.5898 113.357 81.0977 113.51C80.6055 113.662 80.2012 113.879 79.8848 114.16C79.5684 114.43 79.334 114.746 79.1816 115.109C79.041 115.473 78.9707 115.871 78.9707 116.305C78.9707 116.738 79.0703 117.131 79.2695 117.482C79.4688 117.822 79.7559 118.092 80.1309 118.291C80.5059 118.479 80.9453 118.572 81.4492 118.572C82.2109 118.572 82.873 118.42 83.4355 118.115C83.998 117.811 84.4316 117.436 84.7363 116.99C85.0527 116.545 85.2168 116.123 85.2285 115.725L86.5645 117.869C86.377 118.35 86.1191 118.848 85.791 119.363C85.4746 119.879 85.0703 120.365 84.5781 120.822C84.0859 121.268 83.4941 121.637 82.8027 121.93C82.1113 122.211 81.291 122.352 80.3418 122.352C79.1348 122.352 78.0391 122.111 77.0547 121.631C76.082 121.139 75.3086 120.465 74.7344 119.609C74.1719 118.742 73.8906 117.758 73.8906 116.656C73.8906 115.66 74.0781 114.775 74.4531 114.002C74.8281 113.229 75.3789 112.578 76.1055 112.051C76.8438 111.512 77.7637 111.107 78.8652 110.838C79.9668 110.557 81.2441 110.416 82.6973 110.416H85.6328ZM98.9219 107.041V122H93.8594V102.98H98.6055L98.9219 107.041ZM98.1836 111.822H96.8125C96.8125 110.416 96.9941 109.15 97.3574 108.025C97.7207 106.889 98.2305 105.922 98.8867 105.125C99.543 104.316 100.322 103.701 101.225 103.279C102.139 102.846 103.158 102.629 104.283 102.629C105.174 102.629 105.988 102.758 106.727 103.016C107.465 103.273 108.098 103.684 108.625 104.246C109.164 104.809 109.574 105.553 109.855 106.479C110.148 107.404 110.295 108.535 110.295 109.871V122H105.197V109.854C105.197 109.01 105.08 108.354 104.846 107.885C104.611 107.416 104.266 107.088 103.809 106.9C103.363 106.701 102.812 106.602 102.156 106.602C101.477 106.602 100.885 106.736 100.381 107.006C99.8887 107.275 99.4785 107.65 99.1504 108.131C98.834 108.6 98.5938 109.15 98.4297 109.783C98.2656 110.416 98.1836 111.096 98.1836 111.822ZM119.102 107.041V122H114.039V102.98H118.785L119.102 107.041ZM118.363 111.822H116.992C116.992 110.416 117.174 109.15 117.537 108.025C117.9 106.889 118.41 105.922 119.066 105.125C119.723 104.316 120.502 103.701 121.404 103.279C122.318 102.846 123.338 102.629 124.463 102.629C125.354 102.629 126.168 102.758 126.906 103.016C127.645 103.273 128.277 103.684 128.805 104.246C129.344 104.809 129.754 105.553 130.035 106.479C130.328 107.404 130.475 108.535 130.475 109.871V122H125.377V109.854C125.377 109.01 125.26 108.354 125.025 107.885C124.791 107.416 124.445 107.088 123.988 106.9C123.543 106.701 122.992 106.602 122.336 106.602C121.656 106.602 121.064 106.736 120.561 107.006C120.068 107.275 119.658 107.65 119.33 108.131C119.014 108.6 118.773 109.15 118.609 109.783C118.445 110.416 118.363 111.096 118.363 111.822ZM143.078 122.352C141.602 122.352 140.277 122.117 139.105 121.648C137.934 121.168 136.938 120.506 136.117 119.662C135.309 118.818 134.688 117.84 134.254 116.727C133.82 115.602 133.604 114.406 133.604 113.141V112.438C133.604 110.996 133.809 109.678 134.219 108.482C134.629 107.287 135.215 106.25 135.977 105.371C136.75 104.492 137.688 103.818 138.789 103.35C139.891 102.869 141.133 102.629 142.516 102.629C143.863 102.629 145.059 102.852 146.102 103.297C147.145 103.742 148.018 104.375 148.721 105.195C149.436 106.016 149.975 107 150.338 108.148C150.701 109.285 150.883 110.551 150.883 111.945V114.055H135.766V110.68H145.908V110.293C145.908 109.59 145.779 108.963 145.521 108.412C145.275 107.85 144.9 107.404 144.396 107.076C143.893 106.748 143.248 106.584 142.463 106.584C141.795 106.584 141.221 106.73 140.74 107.023C140.26 107.316 139.867 107.727 139.562 108.254C139.27 108.781 139.047 109.402 138.895 110.117C138.754 110.82 138.684 111.594 138.684 112.438V113.141C138.684 113.902 138.789 114.605 139 115.25C139.223 115.895 139.533 116.451 139.932 116.92C140.342 117.389 140.834 117.752 141.408 118.01C141.994 118.268 142.656 118.396 143.395 118.396C144.309 118.396 145.158 118.221 145.943 117.869C146.74 117.506 147.426 116.961 148 116.234L150.461 118.906C150.062 119.48 149.518 120.031 148.826 120.559C148.146 121.086 147.326 121.52 146.365 121.859C145.404 122.188 144.309 122.352 143.078 122.352ZM164.998 117.852V95H170.096V122H165.508L164.998 117.852ZM152.975 112.719V112.35C152.975 110.896 153.139 109.578 153.467 108.395C153.795 107.199 154.275 106.174 154.908 105.318C155.541 104.463 156.32 103.801 157.246 103.332C158.172 102.863 159.227 102.629 160.41 102.629C161.523 102.629 162.496 102.863 163.328 103.332C164.172 103.801 164.887 104.469 165.473 105.336C166.07 106.191 166.551 107.205 166.914 108.377C167.277 109.537 167.541 110.809 167.705 112.191V113C167.541 114.324 167.277 115.555 166.914 116.691C166.551 117.828 166.07 118.824 165.473 119.68C164.887 120.523 164.172 121.18 163.328 121.648C162.484 122.117 161.5 122.352 160.375 122.352C159.191 122.352 158.137 122.111 157.211 121.631C156.297 121.15 155.523 120.477 154.891 119.609C154.27 118.742 153.795 117.723 153.467 116.551C153.139 115.379 152.975 114.102 152.975 112.719ZM158.037 112.35V112.719C158.037 113.504 158.096 114.236 158.213 114.916C158.342 115.596 158.547 116.199 158.828 116.727C159.121 117.242 159.496 117.646 159.953 117.939C160.422 118.221 160.99 118.361 161.658 118.361C162.525 118.361 163.24 118.168 163.803 117.781C164.365 117.383 164.793 116.838 165.086 116.146C165.391 115.455 165.566 114.658 165.613 113.756V111.453C165.578 110.715 165.473 110.053 165.297 109.467C165.133 108.869 164.887 108.359 164.559 107.938C164.242 107.516 163.844 107.188 163.363 106.953C162.895 106.719 162.338 106.602 161.693 106.602C161.037 106.602 160.475 106.754 160.006 107.059C159.537 107.352 159.156 107.756 158.863 108.271C158.582 108.787 158.371 109.396 158.23 110.1C158.102 110.791 158.037 111.541 158.037 112.35ZM189.502 117.939L194.6 96.4062H197.447L198.098 99.9922L192.666 122H189.607L189.502 117.939ZM186.883 96.4062L191.102 117.939L190.75 122H187.34L181.662 96.4062H186.883ZM202.58 117.852L206.746 96.4062H211.967L206.307 122H202.896L202.58 117.852ZM199.047 96.4062L204.18 118.027L204.039 122H200.98L195.514 99.9746L196.217 96.4062H199.047ZM213.145 112.684V112.314C213.145 110.92 213.344 109.637 213.742 108.465C214.141 107.281 214.721 106.256 215.482 105.389C216.244 104.521 217.182 103.848 218.295 103.367C219.408 102.875 220.686 102.629 222.127 102.629C223.568 102.629 224.852 102.875 225.977 103.367C227.102 103.848 228.045 104.521 228.807 105.389C229.58 106.256 230.166 107.281 230.564 108.465C230.963 109.637 231.162 110.92 231.162 112.314V112.684C231.162 114.066 230.963 115.35 230.564 116.533C230.166 117.705 229.58 118.73 228.807 119.609C228.045 120.477 227.107 121.15 225.994 121.631C224.881 122.111 223.604 122.352 222.162 122.352C220.721 122.352 219.438 122.111 218.312 121.631C217.199 121.15 216.256 120.477 215.482 119.609C214.721 118.73 214.141 117.705 213.742 116.533C213.344 115.35 213.145 114.066 213.145 112.684ZM218.207 112.314V112.684C218.207 113.48 218.277 114.225 218.418 114.916C218.559 115.607 218.781 116.217 219.086 116.744C219.402 117.26 219.812 117.664 220.316 117.957C220.82 118.25 221.436 118.396 222.162 118.396C222.865 118.396 223.469 118.25 223.973 117.957C224.477 117.664 224.881 117.26 225.186 116.744C225.49 116.217 225.713 115.607 225.854 114.916C226.006 114.225 226.082 113.48 226.082 112.684V112.314C226.082 111.541 226.006 110.814 225.854 110.135C225.713 109.443 225.484 108.834 225.168 108.307C224.863 107.768 224.459 107.346 223.955 107.041C223.451 106.736 222.842 106.584 222.127 106.584C221.412 106.584 220.803 106.736 220.299 107.041C219.807 107.346 219.402 107.768 219.086 108.307C218.781 108.834 218.559 109.443 218.418 110.135C218.277 110.814 218.207 111.541 218.207 112.314ZM239.336 107.129V122H234.273V102.98H239.037L239.336 107.129ZM245.066 102.857L244.979 107.551C244.732 107.516 244.434 107.486 244.082 107.463C243.742 107.428 243.432 107.41 243.15 107.41C242.436 107.41 241.814 107.504 241.287 107.691C240.771 107.867 240.338 108.131 239.986 108.482C239.646 108.834 239.389 109.262 239.213 109.766C239.049 110.27 238.955 110.844 238.932 111.488L237.912 111.172C237.912 109.941 238.035 108.811 238.281 107.779C238.527 106.736 238.885 105.828 239.354 105.055C239.834 104.281 240.42 103.684 241.111 103.262C241.803 102.84 242.594 102.629 243.484 102.629C243.766 102.629 244.053 102.652 244.346 102.699C244.639 102.734 244.879 102.787 245.066 102.857ZM252.52 94.9824V122H247.457V94.9824H252.52ZM264.508 102.98L256.246 112.402L251.816 116.885L249.971 113.229L253.486 108.764L258.426 102.98H264.508ZM259.252 122L253.627 113.211L257.125 110.152L265.088 122H259.252ZM265.879 112.684V112.314C265.879 110.92 266.078 109.637 266.477 108.465C266.875 107.281 267.455 106.256 268.217 105.389C268.979 104.521 269.916 103.848 271.029 103.367C272.143 102.875 273.42 102.629 274.861 102.629C276.303 102.629 277.586 102.875 278.711 103.367C279.836 103.848 280.779 104.521 281.541 105.389C282.314 106.256 282.9 107.281 283.299 108.465C283.697 109.637 283.896 110.92 283.896 112.314V112.684C283.896 114.066 283.697 115.35 283.299 116.533C282.9 117.705 282.314 118.73 281.541 119.609C280.779 120.477 279.842 121.15 278.729 121.631C277.615 122.111 276.338 122.352 274.896 122.352C273.455 122.352 272.172 122.111 271.047 121.631C269.934 121.15 268.99 120.477 268.217 119.609C267.455 118.73 266.875 117.705 266.477 116.533C266.078 115.35 265.879 114.066 265.879 112.684ZM270.941 112.314V112.684C270.941 113.48 271.012 114.225 271.152 114.916C271.293 115.607 271.516 116.217 271.82 116.744C272.137 117.26 272.547 117.664 273.051 117.957C273.555 118.25 274.17 118.396 274.896 118.396C275.6 118.396 276.203 118.25 276.707 117.957C277.211 117.664 277.615 117.26 277.92 116.744C278.225 116.217 278.447 115.607 278.588 114.916C278.74 114.225 278.816 113.48 278.816 112.684V112.314C278.816 111.541 278.74 110.814 278.588 110.135C278.447 109.443 278.219 108.834 277.902 108.307C277.598 107.768 277.193 107.346 276.689 107.041C276.186 106.736 275.576 106.584 274.861 106.584C274.146 106.584 273.537 106.736 273.033 107.041C272.541 107.346 272.137 107.768 271.82 108.307C271.516 108.834 271.293 109.443 271.152 110.135C271.012 110.814 270.941 111.541 270.941 112.314ZM298.258 117.447V102.98H303.32V122H298.557L298.258 117.447ZM298.82 113.545L300.314 113.51C300.314 114.775 300.168 115.953 299.875 117.043C299.582 118.121 299.143 119.059 298.557 119.855C297.971 120.641 297.232 121.256 296.342 121.701C295.451 122.135 294.402 122.352 293.195 122.352C292.27 122.352 291.414 122.223 290.629 121.965C289.855 121.695 289.188 121.279 288.625 120.717C288.074 120.143 287.641 119.41 287.324 118.52C287.02 117.617 286.867 116.533 286.867 115.268V102.98H291.93V115.303C291.93 115.865 291.994 116.34 292.123 116.727C292.264 117.113 292.457 117.43 292.703 117.676C292.949 117.922 293.236 118.098 293.564 118.203C293.904 118.309 294.279 118.361 294.689 118.361C295.732 118.361 296.553 118.15 297.15 117.729C297.76 117.307 298.188 116.732 298.434 116.006C298.691 115.268 298.82 114.447 298.82 113.545ZM316.504 102.98V106.566H305.43V102.98H316.504ZM308.172 98.2871H313.234V116.27C313.234 116.82 313.305 117.242 313.445 117.535C313.598 117.828 313.82 118.033 314.113 118.15C314.406 118.256 314.775 118.309 315.221 118.309C315.537 118.309 315.818 118.297 316.064 118.273C316.322 118.238 316.539 118.203 316.715 118.168L316.732 121.895C316.299 122.035 315.83 122.146 315.326 122.229C314.822 122.311 314.266 122.352 313.656 122.352C312.543 122.352 311.57 122.17 310.738 121.807C309.918 121.432 309.285 120.834 308.84 120.014C308.395 119.193 308.172 118.115 308.172 116.779V98.2871Z" fill="#F2F2F2"/>
<path d="M186 190L174 178" stroke="#1D731A" stroke-width="2" stroke-linecap="round" stroke-linejoin="round"/>
<path d="M196.642 207.712C195.705 208.65 194.433 209.177 193.107 209.178C191.781 209.178 190.509 208.651 189.571 207.714C188.633 206.776 188.106 205.504 188.106 204.178C188.106 202.852 188.632 201.58 189.57 200.642L185.152 205.062C184.215 206 182.943 206.527 181.616 206.527C180.29 206.527 179.018 206 178.08 205.062C177.142 204.125 176.615 202.853 176.615 201.526C176.615 200.2 177.142 198.928 178.08 197.99L193.99 182.08C194.928 181.142 196.2 180.615 197.526 180.615C198.853 180.615 200.125 181.142 201.062 182.08C202 183.018 202.527 184.29 202.527 185.616C202.527 186.943 202 188.215 201.062 189.152L196.642 193.57C197.58 192.632 198.852 192.106 200.178 192.106C201.504 192.106 202.776 192.633 203.714 193.571C204.651 194.509 205.178 195.781 205.178 197.107C205.177 198.433 204.65 199.705 203.712 200.642L196.642 207.712Z" stroke="#1D731A" stroke-width="2" stroke-linecap="round" stroke-linejoin="round"/>
<path d="M203.75 207.75L200.25 204.25" stroke="#1D731A" stroke-width="2" stroke-linecap="round" stroke-linejoin="round"/>
<path d="M159.75 163.75L156.25 160.25" stroke="#1D731A" stroke-width="2" stroke-linecap="round" stroke-linejoin="round"/>
<path d="M166.01 185.92C165.072 186.858 163.8 187.385 162.474 187.385C161.147 187.385 159.875 186.858 158.938 185.92C158 184.982 157.473 183.71 157.473 182.384C157.473 181.057 158 179.785 158.938 178.848L163.358 174.43C162.893 174.894 162.342 175.262 161.735 175.514C161.128 175.765 160.478 175.894 159.822 175.894C158.496 175.894 157.224 175.367 156.286 174.429C155.822 173.964 155.454 173.413 155.203 172.806C154.951 172.2 154.822 171.549 154.822 170.893C154.823 169.567 155.35 168.295 156.288 167.358L163.358 160.288C164.295 159.35 165.567 158.823 166.893 158.822C167.55 158.822 168.2 158.951 168.806 159.203C169.413 159.454 169.964 159.822 170.429 160.286C170.893 160.75 171.262 161.302 171.513 161.908C171.764 162.515 171.894 163.165 171.894 163.822C171.894 164.478 171.765 165.128 171.514 165.735C171.262 166.342 170.894 166.893 170.43 167.358L174.848 162.938C175.785 162 177.057 161.473 178.384 161.473C179.71 161.473 180.982 162 181.92 162.938C182.858 163.875 183.385 165.147 183.385 166.474C183.385 167.8 182.858 169.072 181.92 170.01L166.01 185.92Z" stroke="#1D731A" stroke-width="2" stroke-linecap="round" stroke-linejoin="round"/>
</svg>
